<svg width="24" height="24" viewBox="0 0 24 24" fill="none" xmlns="http://www.w3.org/2000/svg">
<g clip-path="url(#clip0_2434_54841)">
<path d="M2.02051 12.2441C2.02051 11.972 2.13151 11.7321 2.35352 11.5244L9.46484 4.42383C9.57943 4.30924 9.69401 4.22689 9.80859 4.17676C9.93034 4.12663 10.0557 4.10156 10.1846 4.10156C10.4495 4.10156 10.6715 4.19108 10.8506 4.37012C11.0368 4.54199 11.1299 4.76042 11.1299 5.02539C11.1299 5.1543 11.1048 5.27962 11.0547 5.40137C11.0117 5.51595 10.9473 5.61621 10.8613 5.70215L8.45508 8.15137L4.20117 12.04L3.97559 11.5029L7.43457 11.2881H21.0234C21.3027 11.2881 21.5283 11.3776 21.7002 11.5566C21.8792 11.7357 21.9688 11.9648 21.9688 12.2441C21.9688 12.5234 21.8792 12.7526 21.7002 12.9316C21.5283 13.1107 21.3027 13.2002 21.0234 13.2002H7.43457L3.97559 12.9854L4.20117 12.459L8.45508 16.3369L10.8613 18.7861C10.9473 18.8721 11.0117 18.9759 11.0547 19.0977C11.1048 19.2122 11.1299 19.334 11.1299 19.4629C11.1299 19.7279 11.0368 19.9463 10.8506 20.1182C10.6715 20.2972 10.4495 20.3867 10.1846 20.3867C9.92676 20.3867 9.69401 20.2865 9.48633 20.0859L2.35352 12.9639C2.13151 12.7562 2.02051 12.5163 2.02051 12.2441Z" fill="#6B7583"/>
</g>
<defs>
<clipPath id="clip0_2434_54841">
<rect width="24" height="24" fill="white"/>
</clipPath>
</defs>
</svg>
